<svg viewBox="0 0 2000 656" version="1.1" xmlns="http://www.w3.org/2000/svg" xmlns:xlink="http://www.w3.org/1999/xlink" overflow="visible" id="znvyzw6">
   <desc>Engraved by Verovio 6.3.0-425dd7b</desc>
   <defs>
      <g id="E003-znvyzw6">
         <path transform="scale(1,-1)" d="M0 -0v111c0 0 62 1 63 1c70 0 233 16 321 170c1 1 15 -5 15 -6c-5 -7 -57 -176 -263 -271c-24 -4 -53 -5 -83 -5h-53z" />
      </g>
      <g id="E004-znvyzw6">
         <path transform="scale(1,-1)" d="M0 0h53c30 0 59 -1 83 -5c206 -95 258 -264 263 -271c0 -1 -14 -7 -15 -6c-88 154 -251 170 -321 170c-1 0 -63 1 -63 1v111z" />
      </g>
      <g id="E050-znvyzw6">
         <path transform="scale(1,-1)" d="M441 -245c-23 -4 -48 -6 -76 -6c-59 0 -102 7 -130 20c-88 42 -150 93 -187 154c-26 44 -43 103 -48 176c0 6 -1 13 -1 19c0 54 15 111 45 170c29 57 65 106 110 148s96 85 153 127c-3 16 -8 46 -13 92c-4 43 -5 73 -5 89c0 117 16 172 69 257c34 54 64 82 89 82 c21 0 43 -30 69 -92s39 -115 41 -159v-15c0 -109 -21 -162 -67 -241c-13 -20 -63 -90 -98 -118c-13 -9 -25 -19 -37 -29l31 -181c8 1 18 2 28 2c58 0 102 -12 133 -35c59 -43 92 -104 98 -184c1 -7 1 -15 1 -22c0 -123 -87 -209 -181 -248c8 -57 17 -110 25 -162 c5 -31 6 -58 6 -80c0 -30 -5 -53 -14 -70c-35 -64 -88 -99 -158 -103c-5 0 -11 -1 -16 -1c-37 0 -72 10 -108 27c-50 24 -77 59 -80 105v11c0 29 7 55 20 76c18 28 45 42 79 44h6c49 0 93 -42 97 -87v-9c0 -51 -34 -86 -105 -106c17 -24 51 -36 102 -36c62 0 116 43 140 85 c9 16 13 41 13 74c0 20 -1 42 -5 67c-8 53 -18 106 -26 159zM461 939c-95 0 -135 -175 -135 -286c0 -24 2 -48 5 -71c50 39 92 82 127 128c40 53 60 100 60 140v8c-4 53 -22 81 -55 81h-2zM406 119l54 -326c73 25 110 78 110 161c0 7 0 15 -1 23c-7 95 -57 142 -151 142h-12 zM382 117c-72 -2 -128 -47 -128 -120v-7c2 -46 43 -99 75 -115c-3 -2 -7 -5 -10 -10c-70 33 -116 88 -123 172v11c0 68 44 126 88 159c23 17 49 29 78 36l-29 170c-21 -13 -52 -37 -92 -73c-50 -44 -86 -84 -109 -119c-45 -69 -67 -130 -67 -182v-13c5 -68 35 -127 93 -176 s125 -73 203 -73c25 0 50 3 75 9c-19 111 -36 221 -54 331z" />
      </g>
      <g id="E260-znvyzw6">
         <path transform="scale(1,-1)" d="M20 110c32 16 54 27 93 27c26 0 35 -3 54 -13c13 -7 24 -20 27 -38l4 -25c0 -28 -16 -57 -45 -89c-23 -25 -39 -44 -65 -68l-88 -79v644h20v-359zM90 106c-32 0 -48 -10 -70 -29v-194c31 31 54 59 71 84c21 32 32 59 32 84c0 9 1 16 1 20c0 14 -3 21 -11 30l-8 3z" />
      </g>
      <g id="E08A-znvyzw6">
         <path transform="scale(1,-1)" d="M340 179c-9 24 -56 41 -89 41c-46 0 -81 -28 -100 -58c-17 -28 -25 -78 -25 -150c0 -65 2 -111 8 -135c8 -31 18 -49 40 -67c20 -17 43 -25 70 -25c54 0 92 36 115 75c14 25 23 54 28 88h27c0 -63 -24 -105 -58 -141c-35 -38 -82 -56 -140 -56c-45 0 -83 13 -115 39 c-57 45 -101 130 -101 226c0 59 33 127 68 163c36 37 97 72 160 72c36 0 93 -21 121 -40c11 -8 23 -17 33 -30c19 -23 27 -48 27 -76c0 -51 -35 -88 -86 -88c-43 0 -76 27 -76 68c0 26 7 35 21 51c15 17 32 27 58 32c7 2 14 7 14 11z" />
      </g>
      <g id="E0A4-znvyzw6">
         <path transform="scale(1,-1)" d="M0 -39c0 68 73 172 200 172c66 0 114 -37 114 -95c0 -84 -106 -171 -218 -171c-64 0 -96 30 -96 94z" />
      </g>
      <g id="E241-znvyzw6">
         <path transform="scale(1,-1)" d="M179 646c-4 8 -17 30 -18 33l-4 10c0 3 2 5 5 5s7 -2 13 -7c23 -33 46 -81 66 -132c22 -57 35 -125 35 -163c0 -104 -60 -183 -122 -241c-63 -59 -57 -53 -61 -56c-38 -34 -63 -95 -71 -95h-22v190c40 7 69 11 87 16c88 27 168 95 168 200c0 30 -12 89 -30 138 c-17 47 -31 73 -46 102z" />
      </g>
      <g id="E240-znvyzw6">
         <path transform="scale(1,-1)" d="M179 -646c15 29 29 55 46 102c18 49 30 108 30 138c0 105 -80 173 -168 200c-18 5 -47 9 -87 16v190h22c8 0 33 -61 71 -95c4 -3 -2 3 61 -56c62 -58 122 -137 122 -241c0 -38 -13 -106 -35 -163c-20 -51 -43 -99 -66 -132c-6 -5 -10 -7 -13 -7s-5 2 -5 5l4 10 c1 3 14 25 18 33z" />
      </g>
      <g id="E062-znvyzw6">
         <path transform="scale(1,-1)" d="M582 -120c0 32 26 58 58 58s58 -26 58 -58s-26 -58 -58 -58s-58 26 -58 58zM582 120c0 32 26 58 58 58s58 -26 58 -58s-26 -58 -58 -58s-58 26 -58 58zM158 96c51 0 73 -14 88 -49l16 -39c0 -17 -2 -30 -7 -40c-3 -11 -10 -21 -19 -31c-17 -18 -49 -43 -84 -43 c-55 0 -77 13 -112 44c-24 21 -35 55 -35 100c0 46 14 81 32 112c30 52 71 79 137 93l36 6l26 2c154 0 235 -68 274 -182c11 -32 18 -68 18 -107c0 -103 -26 -182 -68 -250c-89 -145 -234 -230 -412 -288l-30 -5c-9 0 -14 3 -14 8c3 10 5 11 10 16c35 15 70 30 96 44l78 43 c96 57 162 136 197 258c9 33 17 60 22 100c3 22 5 35 6 39c-7 69 -16 115 -23 140s-4 22 -16 40c-8 12 -19 23 -31 34c-24 21 -62 44 -118 44c-48 0 -84 -8 -113 -28c-28 -19 -42 -44 -42 -73v-16c2 -5 3 -9 4 -11c24 22 52 39 84 39z" />
      </g>
      <g id="E0A3-znvyzw6">
         <path transform="scale(1,-1)" d="M278 64c0 22 -17 39 -43 39c-12 0 -26 -3 -41 -10c-85 -43 -165 -94 -165 -156c5 -25 15 -32 49 -32c67 11 200 95 200 159zM0 -36c0 68 73 174 200 174c66 0 114 -39 114 -97c0 -84 -106 -173 -218 -173c-64 0 -96 32 -96 96z" />
      </g>
      <g id="E0A2-znvyzw6">
         <path transform="scale(1,-1)" d="M198 133c102 0 207 -45 207 -133c0 -92 -118 -133 -227 -133c-101 0 -178 46 -178 133c0 88 93 133 198 133zM293 -21c0 14 -3 29 -8 44c-7 20 -18 38 -33 54c-20 21 -43 31 -68 31l-20 -2c-15 -5 -27 -14 -36 -28c-4 -9 -6 -17 -8 -24s-3 -16 -3 -27c0 -15 3 -34 9 -57 s18 -41 34 -55c15 -15 36 -23 62 -23c4 0 10 1 18 2c19 5 32 15 40 30s13 34 13 55z" />
      </g>
   </defs>
   <style type="text/css">#znvyzw6 g.ending, #znvyzw6 g.fing, #znvyzw6 g.reh, #znvyzw6 g.tempo {font-weight:bold;}#znvyzw6 g.dir, #znvyzw6 g.dynam, #znvyzw6 g.mNum {font-style:italic;}#znvyzw6 g.label {font-weight:normal;}#znvyzw6 ellipse, #znvyzw6 path, #znvyzw6 polygon, #znvyzw6 polyline, #znvyzw6 rect {stroke:currentColor}#znvyzw6 g.cursor {fill:dodgerblue; color:dodgerblue;}#znvyzw6 g.cursor.chord {fill:limegreen; color:limegreen;}</style>
   <svg class="definition-scale" color="black" font-family="Times, serif" viewBox="0 0 20000 6560">
      <g class="page-margin" transform="translate(200, 200)">
         <g id="m10gklp2" class="score pageMilestone">
            <title class="labelAttr">[selectionScore]</title>
         </g>
         <g id="c14wzhgv" class="system">
            <path d="M3238 540 L3238 4860" stroke-width="27" />
            <g id="vmwkxcy" class="grpSym">
               <use xlink:href="#E003-znvyzw6" transform="translate(3045, 489) scale(0.72, 0.72)" />
               <use xlink:href="#E004-znvyzw6" transform="translate(3045, 4911) scale(0.72, 0.72)" />
               <rect x="3045" y="483" height="4434" width="90" />
            </g>
            <g id="xnmfggp" class="label">
               <text x="2865" y="990" text-anchor="end" font-size="0px">
                  <tspan id="y8z7dau" class="text">
                     <tspan font-size="405px">Violino I</tspan>
                  </tspan>
               </text>
            </g>
            <g id="i1vf0j2q" class="label">
               <text x="2865" y="2790" text-anchor="end" font-size="0px">
                  <tspan id="j4b71q3" class="text">
                     <tspan font-size="405px">Violino II</tspan>
                  </tspan>
               </text>
            </g>
            <g id="trn0680" class="label">
               <text x="2865" y="4590" text-anchor="end" font-size="0px">
                  <tspan id="uvg3ot4" class="text">
                     <tspan font-size="405px">Violone e Organo</tspan>
                  </tspan>
               </text>
            </g>
            <g id="taq1w3t" class="measure">
               <g id="goxwqp9" class="mNum autogenerated">
                  <text x="3225" y="232" text-anchor="middle" font-size="0px">
                     <tspan id="hhw6lwx" class="text">
                        <tspan font-size="324px">17</tspan>
                     </tspan>
                  </text>
               </g>
               <g id="c1ft3vct" class="staff">
                  <path d="M3225 540 L11349 540" stroke-width="13" />
                  <path d="M3225 720 L11349 720" stroke-width="13" />
                  <path d="M3225 900 L11349 900" stroke-width="13" />
                  <path d="M3225 1080 L11349 1080" stroke-width="13" />
                  <path d="M3225 1260 L11349 1260" stroke-width="13" />
                  <g id="robzwoj" class="clef">
                     <use xlink:href="#E050-znvyzw6" transform="translate(3342, 1080) scale(0.72, 0.72)" />
                  </g>
                  <g id="ssqxt8d" class="keySig">
                     <g id="t1mv2h29" class="keyAccid">
                        <use xlink:href="#E260-znvyzw6" transform="translate(4023, 900) scale(0.72, 0.72)" />
                     </g>
                  </g>
                  <g id="uitxzp9" class="meterSig">
                     <use xlink:href="#E08A-znvyzw6" transform="translate(4345, 900) scale(0.72, 0.72)" />
                  </g>
                  <g id="d1chey19" class="layer">
                     <g id="m17s1n1" class="note">
                        <g class="notehead">
                           <use xlink:href="#E0A4-znvyzw6" transform="translate(4893, 540) scale(0.72, 0.72)" />
                        </g>
                        <g id="qxmpor9" class="dots">
                           <ellipse cx="5209" cy="450" rx="36" ry="36" />
                        </g>
                        <g id="pfag96c" class="stem">
                           <path d="M4902 568 L4902 1170" stroke-width="18" />
                        </g>
                     </g>
                     <g id="m17s1n2" class="note">
                        <g class="notehead">
                           <use xlink:href="#E0A4-znvyzw6" transform="translate(7309, 810) scale(0.72, 0.72)" />
                        </g>
                        <g id="rk41zm2" class="stem">
                           <path d="M7318 838 L7318 1440" stroke-width="18" />
                           <g id="s1g02ygy" class="flag">
                              <use xlink:href="#E241-znvyzw6" transform="translate(7309, 1440) scale(0.72, 0.72)" />
                           </g>
                        </g>
                     </g>
                     <g id="m17s1n3" class="note">
                        <g class="notehead">
                           <use xlink:href="#E0A4-znvyzw6" transform="translate(8115, 720) scale(0.72, 0.72)" />
                        </g>
                        <g id="u1l3pd0z" class="dots">
                           <ellipse cx="8431" cy="630" rx="36" ry="36" />
                        </g>
                        <g id="t125e1ee" class="stem">
                           <path d="M8124 748 L8124 1350" stroke-width="18" />
                        </g>
                     </g>
                     <g id="m17s1n4" class="note">
                        <g class="notehead">
                           <use xlink:href="#E0A4-znvyzw6" transform="translate(10531, 1350) scale(0.72, 0.72)" />
                        </g>
                        <g id="v12belbj" class="stem">
                           <path d="M10748 1322 L10748 720" stroke-width="18" />
                           <g id="wt547bg" class="flag">
                              <use xlink:href="#E240-znvyzw6" transform="translate(10739, 720) scale(0.72, 0.72)" />
                           </g>
                        </g>
                     </g>
                  </g>
               </g>
               <g id="id9cc2t" class="staff">
                  <path d="M3225 2340 L11349 2340" stroke-width="13" />
                  <path d="M3225 2520 L11349 2520" stroke-width="13" />
                  <path d="M3225 2700 L11349 2700" stroke-width="13" />
                  <path d="M3225 2880 L11349 2880" stroke-width="13" />
                  <path d="M3225 3060 L11349 3060" stroke-width="13" />
                  <g id="v3u541" class="clef">
                     <use xlink:href="#E050-znvyzw6" transform="translate(3342, 2880) scale(0.72, 0.72)" />
                  </g>
                  <g id="w1pre8wr" class="keySig">
                     <g id="x1stgx2h" class="keyAccid">
                        <use xlink:href="#E260-znvyzw6" transform="translate(4023, 2700) scale(0.72, 0.72)" />
                     </g>
                  </g>
                  <g id="y4o3pgp" class="meterSig">
                     <use xlink:href="#E08A-znvyzw6" transform="translate(4345, 2700) scale(0.72, 0.72)" />
                  </g>
                  <g id="j1wadxpw" class="layer">
                     <g id="m17s2n1" class="note">
                        <g class="notehead">
                           <use xlink:href="#E0A4-znvyzw6" transform="translate(4893, 2340) scale(0.72, 0.72)" />
                        </g>
                        <g id="x1aufamf" class="stem">
                           <path d="M4902 2368 L4902 2970" stroke-width="18" />
                        </g>
                     </g>
                     <g id="m17s2n2" class="note">
                        <g class="notehead">
                           <use xlink:href="#E0A4-znvyzw6" transform="translate(6504, 2610) scale(0.72, 0.72)" />
                        </g>
                        <g id="y1s1w4ik" class="stem">
                           <path d="M6513 2638 L6513 3240" stroke-width="18" />
                        </g>
                     </g>
                     <g id="mdtw3hv" class="beam">
                        <polygon points="8323,2070 9146,2250 9146,2340 8323,2160" />
                        <g id="m17s2n3" class="note">
                           <g class="notehead">
                              <use xlink:href="#E0A4-znvyzw6" transform="translate(8115, 2610) scale(0.72, 0.72)" />
                           </g>
                           <g id="z18of8sj" class="stem">
                              <path d="M8332 2582 L8332 2088" stroke-width="18" />
                           </g>
                        </g>
                        <g id="m17s2n4" class="note">
                           <g class="notehead">
                              <use xlink:href="#E0A4-znvyzw6" transform="translate(8920, 2970) scale(0.72, 0.72)" />
                           </g>
                           <g id="atulcba" class="stem">
                              <path d="M9137 2942 L9137 2268" stroke-width="18" />
                           </g>
                        </g>
                     </g>
                     <g id="m17s2n5" class="note">
                        <g class="notehead">
                           <use xlink:href="#E0A4-znvyzw6" transform="translate(9725, 2700) scale(0.72, 0.72)" />
                        </g>
                        <g id="b195pyf9" class="stem">
                           <path d="M9734 2728 L9734 3300" stroke-width="18" />
                        </g>
                        <g id="q1g24na2" class="accid" />
                     </g>
                  </g>
               </g>
               <g id="r46vn7a" class="staff">
                  <path d="M3225 4140 L11349 4140" stroke-width="13" />
                  <path d="M3225 4320 L11349 4320" stroke-width="13" />
                  <path d="M3225 4500 L11349 4500" stroke-width="13" />
                  <path d="M3225 4680 L11349 4680" stroke-width="13" />
                  <path d="M3225 4860 L11349 4860" stroke-width="13" />
                  <g id="z1evsd6e" class="clef">
                     <use xlink:href="#E062-znvyzw6" transform="translate(3342, 4320) scale(0.72, 0.72)" />
                  </g>
                  <g id="aw0op0k" class="keySig">
                     <g id="b9yesqa" class="keyAccid">
                        <use xlink:href="#E260-znvyzw6" transform="translate(4023, 4680) scale(0.72, 0.72)" />
                     </g>
                  </g>
                  <g id="cgnr587" class="meterSig">
                     <use xlink:href="#E08A-znvyzw6" transform="translate(4345, 4500) scale(0.72, 0.72)" />
                  </g>
                  <g id="su0h6wg" class="layer">
                     <g id="t1u2tifx" class="beam">
                        <polygon points="4893,4905 7327,5265 7327,5175 4893,4815" />
                        <g id="m17s3n1" class="note">
                           <g class="notehead">
                              <use xlink:href="#E0A4-znvyzw6" transform="translate(4893, 4320) scale(0.72, 0.72)" />
                           </g>
                           <g id="c4tn6a9" class="stem">
                              <path d="M4902 4348 L4902 4887" stroke-width="18" />
                           </g>
                        </g>
                        <g id="m17s3n2" class="note">
                           <g class="notehead">
                              <use xlink:href="#E0A4-znvyzw6" transform="translate(5698, 4230) scale(0.72, 0.72)" />
                           </g>
                           <g id="d1efn9q3" class="stem">
                              <path d="M5707 4258 L5707 5007" stroke-width="18" />
                           </g>
                        </g>
                        <g id="m17s3n3" class="note">
                           <g class="notehead">
                              <use xlink:href="#E0A4-znvyzw6" transform="translate(6504, 4140) scale(0.72, 0.72)" />
                           </g>
                           <g id="e1oz6dtr" class="stem">
                              <path d="M6513 4168 L6513 5128" stroke-width="18" />
                           </g>
                        </g>
                        <g id="m17s3n4" class="note">
                           <g class="notehead">
                              <use xlink:href="#E0A4-znvyzw6" transform="translate(7309, 4770) scale(0.72, 0.72)" />
                           </g>
                           <g id="fzmwnim" class="stem">
                              <path d="M7318 4798 L7318 5247" stroke-width="18" />
                           </g>
                        </g>
                     </g>
                     <g id="m17s3n5" class="note">
                        <g class="notehead">
                           <use xlink:href="#E0A4-znvyzw6" transform="translate(8115, 4680) scale(0.72, 0.72)" />
                        </g>
                        <g id="h1akba9a" class="dots">
                           <ellipse cx="8431" cy="4590" rx="36" ry="36" />
                        </g>
                        <g id="g5qh5e2" class="stem">
                           <path d="M8332 4652 L8332 4050" stroke-width="18" />
                        </g>
                        <g id="zi3igpe" class="accid" />
                     </g>
                     <g id="m17s3n6" class="note">
                        <g class="notehead">
                           <use xlink:href="#E0A4-znvyzw6" transform="translate(10531, 4680) scale(0.72, 0.72)" />
                        </g>
                        <g id="i15vvquu" class="stem">
                           <path d="M10748 4652 L10748 4050" stroke-width="18" />
                           <g id="jz1nr7h" class="flag">
                              <use xlink:href="#E240-znvyzw6" transform="translate(10739, 4050) scale(0.72, 0.72)" />
                           </g>
                        </g>
                        <g id="b19ou9v5" class="accid" />
                     </g>
                  </g>
               </g>
               <g id="c1s8huqn" class="harm">
                  <g id="dm4dcha" class="fb">
                     <text x="6504" y="5684" font-size="0px">
                        <tspan id="e97vasb" class="f">
                           <tspan id="fowo7mn" class="text">
                              <tspan font-size="405px">6</tspan>
                           </tspan>
                        </tspan>
                     </text>
                  </g>
               </g>
               <g id="g4j7x9s" class="harm">
                  <g id="h1hjhymh" class="fb">
                     <text x="8115" y="5684" font-size="0px">
                        <tspan id="i1imjpbt" class="f">
                           <tspan id="jbry2vs" class="text">
                              <tspan font-size="405px">9</tspan>
                           </tspan>
                        </tspan>
                     </text>
                  </g>
               </g>
               <g id="k1ax10xd" class="harm">
                  <g id="ly7mjt2" class="fb">
                     <text x="9725" y="5684" font-size="0px">
                        <tspan id="m10fyghj" class="f">
                           <tspan id="n1x3xdwo" class="text">
                              <tspan font-size="405px">8</tspan>
                           </tspan>
                        </tspan>
                     </text>
                  </g>
               </g>
               <g id="ydydtyb" class="tie">
                  <path d="M6775,2565 C7093,2412 7748,2412 8070,2565 C7739,2460 7102,2460 6775,2565" stroke-width="9" stroke-linecap="round" stroke-linejoin="round" />
               </g>
               <g id="zudzlx4" class="tie">
                  <path d="M9996,2655 C10358,2502 11101,2502 11464,2655 C11092,2550 10367,2550 9996,2655" stroke-width="9" stroke-linecap="round" stroke-linejoin="round" />
               </g>
               <g id="b1mh8mz4" class="barLine">
                  <path d="M11336 540 L11336 1260" stroke-width="27" />
                  <path d="M11336 2340 L11336 3060" stroke-width="27" />
                  <path d="M11336 4140 L11336 4860" stroke-width="27" />
               </g>
            </g>
            <g id="o108yj6x" class="measure">
               <g id="xziidhy" class="staff">
                  <path d="M11349 540 L16443 540" stroke-width="13" />
                  <path d="M11349 720 L16443 720" stroke-width="13" />
                  <path d="M11349 900 L16443 900" stroke-width="13" />
                  <path d="M11349 1080 L16443 1080" stroke-width="13" />
                  <path d="M11349 1260 L16443 1260" stroke-width="13" />
                  <g id="y1pb82mv" class="layer">
                     <g id="m18s1n1" class="note">
                        <g class="notehead">
                           <use xlink:href="#E0A4-znvyzw6" transform="translate(11509, 1260) scale(0.72, 0.72)" />
                        </g>
                        <g id="k186ao8h" class="stem">
                           <path d="M11726 1232 L11726 630" stroke-width="18" />
                        </g>
                     </g>
                     <g id="m18s1n2" class="note">
                        <g class="notehead">
                           <use xlink:href="#E0A3-znvyzw6" transform="translate(12739, 1170) scale(0.72, 0.72)" />
                        </g>
                        <g id="lv2687g" class="stem">
                           <path d="M12956 1142 L12956 540" stroke-width="18" />
                        </g>
                     </g>
                     <g id="m18s1n3" class="note">
                        <g class="notehead">
                           <use xlink:href="#E0A4-znvyzw6" transform="translate(15200, 1260) scale(0.72, 0.72)" />
                        </g>
                        <g id="mh95mei" class="stem">
                           <path d="M15417 1232 L15417 630" stroke-width="18" />
                        </g>
                     </g>
                  </g>
               </g>
               <g id="c15xz4ku" class="staff">
                  <path d="M11349 2340 L16443 2340" stroke-width="13" />
                  <path d="M11349 2520 L16443 2520" stroke-width="13" />
                  <path d="M11349 2700 L16443 2700" stroke-width="13" />
                  <path d="M11349 2880 L16443 2880" stroke-width="13" />
                  <path d="M11349 3060 L16443 3060" stroke-width="13" />
                  <g id="d3arvzg" class="layer">
                     <g id="m18s2n1" class="note">
                        <g class="notehead">
                           <use xlink:href="#E0A4-znvyzw6" transform="translate(11509, 2700) scale(0.72, 0.72)" />
                        </g>
                        <g id="nczoyvy" class="stem">
                           <path d="M11518 2728 L11518 3300" stroke-width="18" />
                        </g>
                        <g id="f1u1nacv" class="accid" />
                     </g>
                     <g id="m18s2n2" class="note">
                        <g class="notehead">
                           <use xlink:href="#E0A4-znvyzw6" transform="translate(12739, 2790) scale(0.72, 0.72)" />
                        </g>
                        <g id="o3y52v4" class="stem">
                           <path d="M12956 2762 L12956 2160" stroke-width="18" />
                        </g>
                     </g>
                     <g id="m18s2n3" class="note">
                        <g class="notehead">
                           <use xlink:href="#E0A3-znvyzw6" transform="translate(13969, 2880) scale(0.72, 0.72)" />
                        </g>
                        <g id="p1n0bdw8" class="stem">
                           <path d="M14186 2852 L14186 2250" stroke-width="18" />
                        </g>
                     </g>
                  </g>
               </g>
               <g id="i559sth" class="staff">
                  <path d="M11349 4140 L16443 4140" stroke-width="13" />
                  <path d="M11349 4320 L16443 4320" stroke-width="13" />
                  <path d="M11349 4500 L16443 4500" stroke-width="13" />
                  <path d="M11349 4680 L16443 4680" stroke-width="13" />
                  <path d="M11349 4860 L16443 4860" stroke-width="13" />
                  <g class="ledgerLines below">
                     <path d="M13921 5040 L14243 5040" stroke-width="22" />
                     <path d="M13921 5220 L14243 5220" stroke-width="22" />
                  </g>
                  <g id="j6imm7" class="layer">
                     <g id="m18s3n1" class="note">
                        <g class="notehead">
                           <use xlink:href="#E0A3-znvyzw6" transform="translate(11509, 4590) scale(0.72, 0.72)" />
                        </g>
                        <g id="qneazzb" class="stem">
                           <path d="M11726 4562 L11726 3960" stroke-width="18" />
                        </g>
                     </g>
                     <g id="m18s3n2" class="note">
                        <g class="notehead">
                           <use xlink:href="#E0A3-znvyzw6" transform="translate(13969, 5220) scale(0.72, 0.72)" />
                        </g>
                        <g id="r1jvpcv7" class="stem">
                           <path d="M14186 5192 L14186 4500" stroke-width="18" />
                        </g>
                     </g>
                  </g>
               </g>
               <g id="m1qa9rsh" class="harm">
                  <g id="n1v7ej58" class="fb">
                     <text x="11509" y="5684" font-size="0px">
                        <tspan id="o1jo750o" class="f">
                           <tspan id="p1jwysn7" class="text">
                              <tspan font-size="405px">7</tspan>
                           </tspan>
                        </tspan>
                     </text>
                     <text x="11509" y="6074" font-size="0px">
                        <tspan id="q1hgtrv5" class="f">
                           <tspan id="rhzdl5c" class="text">
                              <tspan font-size="405px">3</tspan>
                           </tspan>
                        </tspan>
                     </text>
                  </g>
               </g>
               <g id="s1p0rhnb" class="harm">
                  <g id="t1cahjtx" class="fb">
                     <text x="12739" y="5684" font-size="0px">
                        <tspan id="u6vn85n" class="f">
                           <tspan id="v141q8bp" class="text">
                              <tspan font-size="405px">6</tspan>
                           </tspan>
                        </tspan>
                     </text>
                     <text x="12739" y="6074" font-size="0px">
                        <tspan id="w1rh9cwe" class="f">
                           <tspan id="x17hx8zf" class="text">
                              <tspan font-size="405px">4</tspan>
                           </tspan>
                        </tspan>
                     </text>
                  </g>
               </g>
               <g id="yp7fxlc" class="harm">
                  <g id="z1mqnqm6" class="fb">
                     <text x="13969" y="5684" font-size="0px">
                        <tspan id="a1ndv01m" class="f">
                           <tspan id="bn3h3k8" class="text">
                              <tspan font-size="405px">5</tspan>
                           </tspan>
                        </tspan>
                     </text>
                     <text x="13969" y="6074" font-size="0px">
                        <tspan id="crun5nm" class="f">
                           <tspan id="d1cp26em" class="text">
                              <tspan font-size="405px">4</tspan>
                           </tspan>
                        </tspan>
                     </text>
                  </g>
               </g>
               <g id="en1cfj8" class="harm">
                  <g id="f1ugabw1" class="fb">
                     <text x="15200" y="5684" font-size="0px">
                        <tspan id="gatcpgb" class="f">
                           <tspan id="hq673o2" class="text">
                              <tspan font-size="405px">3</tspan>
                           </tspan>
                        </tspan>
                     </text>
                  </g>
               </g>
               <g id="w13rv787" class="barLine">
                  <path d="M16430 540 L16430 1260" stroke-width="27" />
                  <path d="M16430 2340 L16430 3060" stroke-width="27" />
                  <path d="M16430 4140 L16430 4860" stroke-width="27" />
               </g>
            </g>
            <g id="i1ku5bem" class="measure">
               <g id="r1gv66zv" class="staff">
                  <path d="M16443 540 L19601 540" stroke-width="13" />
                  <path d="M16443 720 L19601 720" stroke-width="13" />
                  <path d="M16443 900 L19601 900" stroke-width="13" />
                  <path d="M16443 1080 L19601 1080" stroke-width="13" />
                  <path d="M16443 1260 L19601 1260" stroke-width="13" />
                  <g id="s1hl2wtg" class="layer">
                     <g id="m19s1n1" class="note">
                        <g class="notehead">
                           <use xlink:href="#E0A2-znvyzw6" transform="translate(16603, 1170) scale(0.72, 0.72)" />
                        </g>
                     </g>
                  </g>
               </g>
               <g id="ubc9sim" class="staff">
                  <path d="M16443 2340 L19601 2340" stroke-width="13" />
                  <path d="M16443 2520 L19601 2520" stroke-width="13" />
                  <path d="M16443 2700 L19601 2700" stroke-width="13" />
                  <path d="M16443 2880 L19601 2880" stroke-width="13" />
                  <path d="M16443 3060 L19601 3060" stroke-width="13" />
                  <g id="vppmk66" class="layer">
                     <g id="m19s2n1" class="note">
                        <g class="notehead">
                           <use xlink:href="#E0A2-znvyzw6" transform="translate(16603, 2970) scale(0.72, 0.72)" />
                        </g>
                     </g>
                  </g>
               </g>
               <g id="x18a05tz" class="staff">
                  <path d="M16443 4140 L19601 4140" stroke-width="13" />
                  <path d="M16443 4320 L19601 4320" stroke-width="13" />
                  <path d="M16443 4500 L19601 4500" stroke-width="13" />
                  <path d="M16443 4680 L19601 4680" stroke-width="13" />
                  <path d="M16443 4860 L19601 4860" stroke-width="13" />
                  <g id="y1r75sax" class="layer">
                     <g id="m19s3n1" class="note">
                        <g class="notehead">
                           <use xlink:href="#E0A2-znvyzw6" transform="translate(16603, 4950) scale(0.72, 0.72)" />
                        </g>
                     </g>
                  </g>
               </g>
               <g id="qhmrmtr" class="barLine">
                  <path d="M19426 540 L19426 1260" stroke-width="27" />
                  <path d="M19556 540 L19556 1260" stroke-width="90" />
                  <path d="M19426 2340 L19426 3060" stroke-width="27" />
                  <path d="M19556 2340 L19556 3060" stroke-width="90" />
                  <path d="M19426 4140 L19426 4860" stroke-width="27" />
                  <path d="M19556 4140 L19556 4860" stroke-width="90" />
               </g>
            </g>
         </g>
      </g>
   </svg>
</svg>
