<svg xmlns="http://www.w3.org/2000/svg" xmlns:xlink="http://www.w3.org/1999/xlink" viewBox="0 0 2343 400" version="1.1" overflow="visible" id="k1ls50up">
   <desc>Engraved by Verovio 6.3.0-425dd7b</desc>
   <defs>
      <g id="E050-k1ls50up">
         <path transform="scale(1,-1)" d="M441 -245c-23 -4 -48 -6 -76 -6c-59 0 -102 7 -130 20c-88 42 -150 93 -187 154c-26 44 -43 103 -48 176c0 6 -1 13 -1 19c0 54 15 111 45 170c29 57 65 106 110 148s96 85 153 127c-3 16 -8 46 -13 92c-4 43 -5 73 -5 89c0 117 16 172 69 257c34 54 64 82 89 82 c21 0 43 -30 69 -92s39 -115 41 -159v-15c0 -109 -21 -162 -67 -241c-13 -20 -63 -90 -98 -118c-13 -9 -25 -19 -37 -29l31 -181c8 1 18 2 28 2c58 0 102 -12 133 -35c59 -43 92 -104 98 -184c1 -7 1 -15 1 -22c0 -123 -87 -209 -181 -248c8 -57 17 -110 25 -162 c5 -31 6 -58 6 -80c0 -30 -5 -53 -14 -70c-35 -64 -88 -99 -158 -103c-5 0 -11 -1 -16 -1c-37 0 -72 10 -108 27c-50 24 -77 59 -80 105v11c0 29 7 55 20 76c18 28 45 42 79 44h6c49 0 93 -42 97 -87v-9c0 -51 -34 -86 -105 -106c17 -24 51 -36 102 -36c62 0 116 43 140 85 c9 16 13 41 13 74c0 20 -1 42 -5 67c-8 53 -18 106 -26 159zM461 939c-95 0 -135 -175 -135 -286c0 -24 2 -48 5 -71c50 39 92 82 127 128c40 53 60 100 60 140v8c-4 53 -22 81 -55 81h-2zM406 119l54 -326c73 25 110 78 110 161c0 7 0 15 -1 23c-7 95 -57 142 -151 142h-12 zM382 117c-72 -2 -128 -47 -128 -120v-7c2 -46 43 -99 75 -115c-3 -2 -7 -5 -10 -10c-70 33 -116 88 -123 172v11c0 68 44 126 88 159c23 17 49 29 78 36l-29 170c-21 -13 -52 -37 -92 -73c-50 -44 -86 -84 -109 -119c-45 -69 -67 -130 -67 -182v-13c5 -68 35 -127 93 -176 s125 -73 203 -73c25 0 50 3 75 9c-19 111 -36 221 -54 331z" />
      </g>
      <g id="E084-k1ls50up">
         <path transform="scale(1,-1)" d="M20 -78c84 97 114 180 134 329h170c-13 -32 -82 -132 -99 -151l-84 -97c-33 -36 -59 -63 -80 -81h162v102l127 123v-225h57v-39h-57v-34c0 -43 19 -65 57 -65v-34h-244v36c48 0 60 26 60 70v27h-203v39z" />
      </g>
      <g id="E0A3-k1ls50up">
         <path transform="scale(1,-1)" d="M278 64c0 22 -17 39 -43 39c-12 0 -26 -3 -41 -10c-85 -43 -165 -94 -165 -156c5 -25 15 -32 49 -32c67 11 200 95 200 159zM0 -36c0 68 73 174 200 174c66 0 114 -39 114 -97c0 -84 -106 -173 -218 -173c-64 0 -96 32 -96 96z" />
      </g>
      <g id="E062-k1ls50up">
         <path transform="scale(1,-1)" d="M582 -120c0 32 26 58 58 58s58 -26 58 -58s-26 -58 -58 -58s-58 26 -58 58zM582 120c0 32 26 58 58 58s58 -26 58 -58s-26 -58 -58 -58s-58 26 -58 58zM158 96c51 0 73 -14 88 -49l16 -39c0 -17 -2 -30 -7 -40c-3 -11 -10 -21 -19 -31c-17 -18 -49 -43 -84 -43 c-55 0 -77 13 -112 44c-24 21 -35 55 -35 100c0 46 14 81 32 112c30 52 71 79 137 93l36 6l26 2c154 0 235 -68 274 -182c11 -32 18 -68 18 -107c0 -103 -26 -182 -68 -250c-89 -145 -234 -230 -412 -288l-30 -5c-9 0 -14 3 -14 8c3 10 5 11 10 16c35 15 70 30 96 44l78 43 c96 57 162 136 197 258c9 33 17 60 22 100c3 22 5 35 6 39c-7 69 -16 115 -23 140s-4 22 -16 40c-8 12 -19 23 -31 34c-24 21 -62 44 -118 44c-48 0 -84 -8 -113 -28c-28 -19 -42 -44 -42 -73v-16c2 -5 3 -9 4 -11c24 22 52 39 84 39z" />
      </g>
      <g id="E0A4-k1ls50up">
         <path transform="scale(1,-1)" d="M0 -39c0 68 73 172 200 172c66 0 114 -37 114 -95c0 -84 -106 -171 -218 -171c-64 0 -96 30 -96 94z" />
      </g>
      <g id="E0A2-k1ls50up">
         <path transform="scale(1,-1)" d="M198 133c102 0 207 -45 207 -133c0 -92 -118 -133 -227 -133c-101 0 -178 46 -178 133c0 88 93 133 198 133zM293 -21c0 14 -3 29 -8 44c-7 20 -18 38 -33 54c-20 21 -43 31 -68 31l-20 -2c-15 -5 -27 -14 -36 -28c-4 -9 -6 -17 -8 -24s-3 -16 -3 -27c0 -15 3 -34 9 -57 s18 -41 34 -55c15 -15 36 -23 62 -23c4 0 10 1 18 2c19 5 32 15 40 30s13 34 13 55z" />
      </g>
   </defs>
   <style type="text/css">#k1ls50up g.ending, #k1ls50up g.fing, #k1ls50up g.reh, #k1ls50up g.tempo {font-weight:bold;}#k1ls50up g.dir, #k1ls50up g.dynam, #k1ls50up g.mNum {font-style:italic;}#k1ls50up g.label {font-weight:normal;}#k1ls50up ellipse, #k1ls50up path, #k1ls50up polygon, #k1ls50up polyline, #k1ls50up rect {stroke:currentColor}#k1ls50up g.cursor {fill:dodgerblue; color:dodgerblue;}#k1ls50up g.cursor.chord {fill:limegreen; color:limegreen;}</style>
   <svg class="definition-scale" color="black" font-family="Times, serif" viewBox="0 0 23430 4000">
      <g class="page-margin" transform="translate(200, 200)">
         <g id="l1kiclmn" class="mdiv pageMilestone" />
         <g id="mav2910" class="score pageMilestone" />
         <g id="vineimj" class="system">
            <path d="M13 540 L13 3060" stroke-width="27" />
            <g id="f3h1532" class="grpSym">
               <path d="M-72,3042 C-432,2502 18,1980 -252,1800 C81,1980 -369,2502 -72,3042" stroke-width="18" stroke-linecap="round" stroke-linejoin="round" />
               <path d="M-72,558 C-369,1098 81,1620 -252,1800 C18,1620 -432,1098 -72,558" stroke-width="18" stroke-linecap="round" stroke-linejoin="round" />
            </g>
            <g id="kxjxfeo" class="section systemMilestone" />
            <g id="l1wwqmp1" class="measure">
               <g id="uk2nrv5" class="staff">
                  <path d="M0 540 L5579 540" stroke-width="13" />
                  <path d="M0 720 L5579 720" stroke-width="13" />
                  <path d="M0 900 L5579 900" stroke-width="13" />
                  <path d="M0 1080 L5579 1080" stroke-width="13" />
                  <path d="M0 1260 L5579 1260" stroke-width="13" />
                  <g id="umgb5cm" class="clef">
                     <use xlink:href="#E050-k1ls50up" transform="translate(117, 1080) scale(0.72, 0.72)" />
                  </g>
                  <g id="va9tat" class="keySig" />
                  <g id="w15uwfyx" class="meterSig">
                     <use xlink:href="#E084-k1ls50up" transform="translate(784, 720) scale(0.72, 0.72)" />
                     <use xlink:href="#E084-k1ls50up" transform="translate(784, 1080) scale(0.72, 0.72)" />
                  </g>
                  <g id="v1ffff6w" class="layer">
                     <g id="w14d8gjs" class="note">
                        <g class="notehead">
                           <use xlink:href="#E0A3-k1ls50up" transform="translate(1346, 810) scale(0.72, 0.72)" />
                        </g>
                        <g id="l181xa9r" class="stem">
                           <path d="M1355 835 L1355 1440" stroke-width="18" />
                        </g>
                     </g>
                     <g id="x1tdcfb9" class="note">
                        <g class="notehead">
                           <use xlink:href="#E0A3-k1ls50up" transform="translate(3456, 900) scale(0.72, 0.72)" />
                        </g>
                        <g id="m11u5lk3" class="stem">
                           <path d="M3465 925 L3465 1500" stroke-width="18" />
                        </g>
                     </g>
                  </g>
               </g>
               <g id="y6yx8j9" class="staff">
                  <path d="M0 2340 L5579 2340" stroke-width="13" />
                  <path d="M0 2520 L5579 2520" stroke-width="13" />
                  <path d="M0 2700 L5579 2700" stroke-width="13" />
                  <path d="M0 2880 L5579 2880" stroke-width="13" />
                  <path d="M0 3060 L5579 3060" stroke-width="13" />
                  <g id="x1g6qse8" class="clef">
                     <use xlink:href="#E062-k1ls50up" transform="translate(117, 2520) scale(0.72, 0.72)" />
                  </g>
                  <g id="y15hzkps" class="keySig" />
                  <g id="z3oqttl" class="meterSig">
                     <use xlink:href="#E084-k1ls50up" transform="translate(784, 2520) scale(0.72, 0.72)" />
                     <use xlink:href="#E084-k1ls50up" transform="translate(784, 2880) scale(0.72, 0.72)" />
                  </g>
                  <g id="z1asjfp4" class="layer">
                     <g id="akabr86" class="note">
                        <g class="notehead">
                           <use xlink:href="#E0A3-k1ls50up" transform="translate(1346, 2790) scale(0.72, 0.72)" />
                        </g>
                        <g id="n18fxtl6" class="stem">
                           <path d="M1563 2762 L1563 2160" stroke-width="18" />
                        </g>
                     </g>
                     <g id="biiey16" class="note">
                        <g class="notehead">
                           <use xlink:href="#E0A3-k1ls50up" transform="translate(3456, 2700) scale(0.72, 0.72)" />
                        </g>
                        <g id="o1aqpzhz" class="stem">
                           <path d="M3465 2725 L3465 3300" stroke-width="18" />
                        </g>
                     </g>
                  </g>
               </g>
               <g id="tbceqet" class="barLine">
                  <path d="M5566 540 L5566 1260" stroke-width="27" />
                  <path d="M5566 2340 L5566 3060" stroke-width="27" />
                  <path d="M5566 1260 L5566 2340" stroke-width="27" />
               </g>
            </g>
            <g id="c1cefaka" class="measure">
               <g id="l16xhp2l" class="staff">
                  <path d="M5579 540 L9992 540" stroke-width="13" />
                  <path d="M5579 720 L9992 720" stroke-width="13" />
                  <path d="M5579 900 L9992 900" stroke-width="13" />
                  <path d="M5579 1080 L9992 1080" stroke-width="13" />
                  <path d="M5579 1260 L9992 1260" stroke-width="13" />
                  <g id="mguryxg" class="layer">
                     <g id="n1y88qax" class="note">
                        <g class="notehead">
                           <use xlink:href="#E0A3-k1ls50up" transform="translate(5759, 810) scale(0.72, 0.72)" />
                        </g>
                        <g id="pdwk7v3" class="stem">
                           <path d="M5768 835 L5768 1440" stroke-width="18" />
                        </g>
                     </g>
                     <g id="o1ycdmiz" class="note">
                        <g class="notehead">
                           <use xlink:href="#E0A3-k1ls50up" transform="translate(7869, 720) scale(0.72, 0.72)" />
                        </g>
                        <g id="qgji8x5" class="stem">
                           <path d="M7878 745 L7878 1350" stroke-width="18" />
                        </g>
                     </g>
                  </g>
               </g>
               <g id="p3bvxtq" class="staff">
                  <path d="M5579 2340 L9992 2340" stroke-width="13" />
                  <path d="M5579 2520 L9992 2520" stroke-width="13" />
                  <path d="M5579 2700 L9992 2700" stroke-width="13" />
                  <path d="M5579 2880 L9992 2880" stroke-width="13" />
                  <path d="M5579 3060 L9992 3060" stroke-width="13" />
                  <g id="q3yuz9w" class="layer">
                     <g id="rz2hkxb" class="note">
                        <g class="notehead">
                           <use xlink:href="#E0A3-k1ls50up" transform="translate(5759, 2610) scale(0.72, 0.72)" />
                        </g>
                        <g id="rlrorti" class="stem">
                           <path d="M5768 2635 L5768 3240" stroke-width="18" />
                        </g>
                     </g>
                     <g id="s1pv8kqt" class="note">
                        <g class="notehead">
                           <use xlink:href="#E0A3-k1ls50up" transform="translate(7869, 2520) scale(0.72, 0.72)" />
                        </g>
                        <g id="s1r0u8y4" class="stem">
                           <path d="M7878 2545 L7878 3150" stroke-width="18" />
                        </g>
                     </g>
                  </g>
               </g>
               <g id="k1jpg61q" class="barLine">
                  <path d="M9979 540 L9979 1260" stroke-width="27" />
                  <path d="M9979 2340 L9979 3060" stroke-width="27" />
                  <path d="M9979 1260 L9979 2340" stroke-width="27" />
               </g>
            </g>
            <g id="t55imx5" class="measure">
               <g id="c13kcvhd" class="staff">
                  <path d="M9992 540 L14405 540" stroke-width="13" />
                  <path d="M9992 720 L14405 720" stroke-width="13" />
                  <path d="M9992 900 L14405 900" stroke-width="13" />
                  <path d="M9992 1080 L14405 1080" stroke-width="13" />
                  <path d="M9992 1260 L14405 1260" stroke-width="13" />
                  <g id="d10k9k8d" class="layer">
                     <g id="e19sonbm" class="note">
                        <g class="notehead">
                           <use xlink:href="#E0A3-k1ls50up" transform="translate(10172, 630) scale(0.72, 0.72)" />
                        </g>
                        <g id="t13b9bta" class="stem">
                           <path d="M10181 655 L10181 1260" stroke-width="18" />
                        </g>
                     </g>
                     <g id="ff7pdzp" class="note">
                        <g class="notehead">
                           <use xlink:href="#E0A3-k1ls50up" transform="translate(12282, 720) scale(0.72, 0.72)" />
                        </g>
                        <g id="u3q4ecj" class="stem">
                           <path d="M12291 745 L12291 1350" stroke-width="18" />
                        </g>
                     </g>
                  </g>
               </g>
               <g id="g1sk0twt" class="staff">
                  <path d="M9992 2340 L14405 2340" stroke-width="13" />
                  <path d="M9992 2520 L14405 2520" stroke-width="13" />
                  <path d="M9992 2700 L14405 2700" stroke-width="13" />
                  <path d="M9992 2880 L14405 2880" stroke-width="13" />
                  <path d="M9992 3060 L14405 3060" stroke-width="13" />
                  <g id="h1sm4m0p" class="layer">
                     <g id="i563913" class="note">
                        <g class="notehead">
                           <use xlink:href="#E0A3-k1ls50up" transform="translate(10172, 2430) scale(0.72, 0.72)" />
                        </g>
                        <g id="v1w1gkw5" class="stem">
                           <path d="M10181 2455 L10181 3060" stroke-width="18" />
                        </g>
                     </g>
                     <g id="j15tc64h" class="note">
                        <g class="notehead">
                           <use xlink:href="#E0A3-k1ls50up" transform="translate(12282, 2520) scale(0.72, 0.72)" />
                        </g>
                        <g id="wv20753" class="stem">
                           <path d="M12291 2545 L12291 3150" stroke-width="18" />
                        </g>
                     </g>
                  </g>
               </g>
               <g id="b3w3s08" class="barLine">
                  <path d="M14392 540 L14392 1260" stroke-width="27" />
                  <path d="M14392 2340 L14392 3060" stroke-width="27" />
                  <path d="M14392 1260 L14392 2340" stroke-width="27" />
               </g>
            </g>
            <g id="k1rbu04v" class="measure">
               <g id="t1bg49mg" class="staff">
                  <path d="M14405 540 L19488 540" stroke-width="13" />
                  <path d="M14405 720 L19488 720" stroke-width="13" />
                  <path d="M14405 900 L19488 900" stroke-width="13" />
                  <path d="M14405 1080 L19488 1080" stroke-width="13" />
                  <path d="M14405 1260 L19488 1260" stroke-width="13" />
                  <g id="ubyi57s" class="layer">
                     <g id="m4-s1-1" class="note">
                        <g class="notehead">
                           <use xlink:href="#E0A3-k1ls50up" transform="translate(14585, 810) scale(0.72, 0.72)" />
                        </g>
                        <g id="yh31guq" class="dots">
                           <ellipse cx="14901" cy="810" rx="36" ry="36" />
                        </g>
                        <g id="xovfrjb" class="stem">
                           <path d="M14594 835 L14594 1440" stroke-width="18" />
                        </g>
                     </g>
                     <g id="m4-s1-2" class="note">
                        <g class="notehead">
                           <use xlink:href="#E0A4-k1ls50up" transform="translate(18085, 900) scale(0.72, 0.72)" />
                        </g>
                        <g id="z457wae" class="stem">
                           <path d="M18094 928 L18094 1500" stroke-width="18" />
                        </g>
                     </g>
                  </g>
               </g>
               <g id="xt08gel" class="staff">
                  <path d="M14405 2340 L19488 2340" stroke-width="13" />
                  <path d="M14405 2520 L19488 2520" stroke-width="13" />
                  <path d="M14405 2700 L19488 2700" stroke-width="13" />
                  <path d="M14405 2880 L19488 2880" stroke-width="13" />
                  <path d="M14405 3060 L19488 3060" stroke-width="13" />
                  <g id="y1xrm9tm" class="layer">
                     <g id="m4-s2-1" class="note">
                        <g class="notehead">
                           <use xlink:href="#E0A3-k1ls50up" transform="translate(14585, 2610) scale(0.72, 0.72)" />
                        </g>
                        <g id="acyb6qn" class="stem">
                           <path d="M14594 2635 L14594 3240" stroke-width="18" />
                        </g>
                     </g>
                     <g id="m4-s2-2" class="note">
                        <g class="notehead">
                           <use xlink:href="#E0A3-k1ls50up" transform="translate(16695, 2700) scale(0.72, 0.72)" />
                        </g>
                        <g id="b1uo3jv3" class="stem">
                           <path d="M16704 2725 L16704 3300" stroke-width="18" />
                        </g>
                     </g>
                  </g>
               </g>
               <g id="bcdujbm" class="annot box">
                  <desc />
               </g>
               <g id="s4uc6iq" class="barLine">
                  <path d="M19475 540 L19475 1260" stroke-width="27" />
                  <path d="M19475 2340 L19475 3060" stroke-width="27" />
                  <path d="M19475 1260 L19475 2340" stroke-width="27" />
               </g>
            </g>
            <g id="c10l17yo" class="measure">
               <g id="l1o68noh" class="staff">
                  <path d="M19488 540 L23033 540" stroke-width="13" />
                  <path d="M19488 720 L23033 720" stroke-width="13" />
                  <path d="M19488 900 L23033 900" stroke-width="13" />
                  <path d="M19488 1080 L23033 1080" stroke-width="13" />
                  <path d="M19488 1260 L23033 1260" stroke-width="13" />
                  <g id="mui5jb7" class="layer">
                     <g id="nfxkhwu" class="note">
                        <g class="notehead">
                           <use xlink:href="#E0A2-k1ls50up" transform="translate(19668, 810) scale(0.72, 0.72)" />
                        </g>
                     </g>
                  </g>
               </g>
               <g id="o6f9db8" class="staff">
                  <path d="M19488 2340 L23033 2340" stroke-width="13" />
                  <path d="M19488 2520 L23033 2520" stroke-width="13" />
                  <path d="M19488 2700 L23033 2700" stroke-width="13" />
                  <path d="M19488 2880 L23033 2880" stroke-width="13" />
                  <path d="M19488 3060 L23033 3060" stroke-width="13" />
                  <g id="posj057" class="layer">
                     <g id="qd10251" class="note">
                        <g class="notehead">
                           <use xlink:href="#E0A2-k1ls50up" transform="translate(19668, 2790) scale(0.72, 0.72)" />
                        </g>
                     </g>
                  </g>
               </g>
               <g id="kpgfuxo" class="barLine">
                  <path d="M22858 540 L22858 1260" stroke-width="27" />
                  <path d="M22988 540 L22988 1260" stroke-width="90" />
                  <path d="M22858 2340 L22858 3060" stroke-width="27" />
                  <path d="M22988 2340 L22988 3060" stroke-width="90" />
                  <path d="M22858 1260 L22858 2340" stroke-width="27" />
                  <path d="M22988 1260 L22988 2340" stroke-width="90" />
               </g>
            </g>
            <g id="y1l54s81" class="systemMilestoneEnd kxjxfeo" />
         </g>
         <g id="z1nymxd2" class="pageMilestoneEnd mav2910" />
         <g id="a1i6x43p" class="pageMilestoneEnd l1kiclmn" />
      <g class="focus"><mask id="focus"><rect x="-100000" y="-100000" width="200000" height="200000" fill="white" stroke-width="0" /><rect x="14441" y="390" width="4014" height="3063" fill="black" stroke-width="0" /></mask><rect x="-100000" y="-100000" width="200000" height="200000" fill="white" fill-opacity="0.75" mask="url(#focus)" stroke-width="0" /><rect x="14441" y="390" width="4014" height="3063" fill="none" stroke="currentColor" color="#dc2626" stroke-width="50" /></g></g>
   </svg>
</svg>