<svg viewBox="0 0 1407 400" version="1.1" xmlns="http://www.w3.org/2000/svg" xmlns:xlink="http://www.w3.org/1999/xlink" overflow="visible" id="hjaw9eu">
   <desc>Engraved by Verovio 6.1.0-682d606</desc>
   <defs>
      <g id="E003-hjaw9eu">
         <path transform="scale(1,-1)" d="M0 -0v111c0 0 62 1 63 1c70 0 233 16 321 170c1 1 15 -5 15 -6c-5 -7 -57 -176 -263 -271c-24 -4 -53 -5 -83 -5h-53z" />
      </g>
      <g id="E004-hjaw9eu">
         <path transform="scale(1,-1)" d="M0 0h53c30 0 59 -1 83 -5c206 -95 258 -264 263 -271c0 -1 -14 -7 -15 -6c-88 154 -251 170 -321 170c-1 0 -63 1 -63 1v111z" />
      </g>
      <g id="E050-hjaw9eu">
         <path transform="scale(1,-1)" d="M441 -245c-23 -4 -48 -6 -76 -6c-59 0 -102 7 -130 20c-88 42 -150 93 -187 154c-26 44 -43 103 -48 176c0 6 -1 13 -1 19c0 54 15 111 45 170c29 57 65 106 110 148s96 85 153 127c-3 16 -8 46 -13 92c-4 43 -5 73 -5 89c0 117 16 172 69 257c34 54 64 82 89 82 c21 0 43 -30 69 -92s39 -115 41 -159v-15c0 -109 -21 -162 -67 -241c-13 -20 -63 -90 -98 -118c-13 -9 -25 -19 -37 -29l31 -181c8 1 18 2 28 2c58 0 102 -12 133 -35c59 -43 92 -104 98 -184c1 -7 1 -15 1 -22c0 -123 -87 -209 -181 -248c8 -57 17 -110 25 -162 c5 -31 6 -58 6 -80c0 -30 -5 -53 -14 -70c-35 -64 -88 -99 -158 -103c-5 0 -11 -1 -16 -1c-37 0 -72 10 -108 27c-50 24 -77 59 -80 105v11c0 29 7 55 20 76c18 28 45 42 79 44h6c49 0 93 -42 97 -87v-9c0 -51 -34 -86 -105 -106c17 -24 51 -36 102 -36c62 0 116 43 140 85 c9 16 13 41 13 74c0 20 -1 42 -5 67c-8 53 -18 106 -26 159zM461 939c-95 0 -135 -175 -135 -286c0 -24 2 -48 5 -71c50 39 92 82 127 128c40 53 60 100 60 140v8c-4 53 -22 81 -55 81h-2zM406 119l54 -326c73 25 110 78 110 161c0 7 0 15 -1 23c-7 95 -57 142 -151 142h-12 zM382 117c-72 -2 -128 -47 -128 -120v-7c2 -46 43 -99 75 -115c-3 -2 -7 -5 -10 -10c-70 33 -116 88 -123 172v11c0 68 44 126 88 159c23 17 49 29 78 36l-29 170c-21 -13 -52 -37 -92 -73c-50 -44 -86 -84 -109 -119c-45 -69 -67 -130 -67 -182v-13c5 -68 35 -127 93 -176 s125 -73 203 -73c25 0 50 3 75 9c-19 111 -36 221 -54 331z" />
      </g>
      <g id="E4E4-hjaw9eu">
         <path transform="scale(1,-1)" d="M0 10v105c0 9 1 10 10 10h280c9 0 10 -1 10 -10v-105c0 -9 -1 -10 -10 -10h-280c-9 0 -10 1 -10 10z" />
      </g>
      <g id="E0A3-hjaw9eu">
         <path transform="scale(1,-1)" d="M278 64c0 22 -17 39 -43 39c-12 0 -26 -3 -41 -10c-85 -43 -165 -94 -165 -156c5 -25 15 -32 49 -32c67 11 200 95 200 159zM0 -36c0 68 73 174 200 174c66 0 114 -39 114 -97c0 -84 -106 -173 -218 -173c-64 0 -96 32 -96 96z" />
      </g>
      <g id="E052-hjaw9eu">
         <path transform="scale(1,-1)" d="M382 117c-72 -2 -128 -47 -128 -120v-7c2 -46 43 -99 75 -115c-3 -2 -7 -5 -10 -10c-70 33 -116 88 -123 172v11c0 68 44 126 88 159c23 17 49 29 78 36l-29 170c-21 -13 -52 -37 -92 -73c-50 -44 -86 -84 -109 -119c-45 -69 -67 -130 -67 -182v-13 c5 -68 35 -127 93 -176s125 -73 203 -73c25 0 50 3 75 9c-19 111 -36 221 -54 331zM406 119l54 -326c73 25 110 78 110 161c0 7 0 15 -1 23c-7 95 -57 142 -151 142h-12zM461 939c-95 0 -135 -175 -135 -286c0 -24 2 -48 5 -71c50 39 92 82 127 128c40 53 60 100 60 140v8 c-4 53 -22 81 -55 81h-2zM441 -245c-23 -4 -48 -6 -76 -6c-59 0 -102 7 -130 20c-88 42 -150 93 -187 154c-26 44 -43 103 -48 176c0 6 -1 13 -1 19c0 54 15 111 45 170c29 57 65 106 110 148s96 85 153 127c-3 16 -8 46 -13 92c-4 43 -5 73 -5 89c0 117 16 172 69 257 c34 54 64 82 89 82c21 0 43 -30 69 -92s39 -115 41 -159v-15c0 -109 -21 -162 -67 -241c-13 -20 -63 -90 -98 -118c-13 -9 -25 -19 -37 -29l31 -181c8 1 18 2 28 2c58 0 102 -12 133 -35c59 -43 92 -104 98 -184c1 -7 1 -15 1 -22c0 -123 -87 -209 -181 -248 c8 -57 17 -110 25 -162c5 -31 6 -58 6 -80c0 -30 -5 -53 -14 -70c-25 -46 -59 -77 -102 -92c21 -1 85 -13 85 -60c0 -35 -22 -43 -31 -50c-6 -5 -8 -10 -8 -16s0 -11 4 -16c6 -11 9 -22 9 -34c0 -27 -18 -53 -46 -65c-11 -4 -27 -6 -41 -6c-34 0 -82 21 -90 58 c-1 5 -2 8 -2 12c0 28 25 57 51 66c4 1 6 2 6 5c0 2 -1 3 -2 3c-11 13 -16 27 -16 41c0 21 11 40 30 51h-5c-5 0 -11 -1 -16 -1c-37 0 -72 10 -108 27c-50 24 -77 59 -80 105v11c0 29 7 55 20 76c18 28 45 42 79 44h6c49 0 93 -42 97 -87v-9c0 -51 -34 -86 -105 -106 c17 -24 51 -36 102 -36c62 0 116 43 140 85c9 16 13 41 13 74c0 20 -1 42 -5 67c-8 53 -18 106 -26 159zM315 -781c-3 -2 -6 -5 -7 -8c-6 -8 -10 -19 -10 -30c0 -2 0 -4 1 -7c7 -32 34 -52 53 -52c20 0 37 20 37 36c0 5 -2 9 -4 14c-5 13 -14 24 -25 34c-6 5 -11 10 -17 14 c-4 2 -9 6 -14 6c-6 0 -11 -3 -14 -7zM349 -685c0 -14 10 -25 18 -34c8 -8 16 -18 26 -25c5 -2 10 -4 13 -4c17 0 22 30 23 48c0 9 -3 20 -9 26c-8 9 -23 14 -40 14c-15 -1 -29 -8 -31 -25z" />
      </g>
      <g id="E0A2-hjaw9eu">
         <path transform="scale(1,-1)" d="M198 133c102 0 207 -45 207 -133c0 -92 -118 -133 -227 -133c-101 0 -178 46 -178 133c0 88 93 133 198 133zM293 -21c0 14 -3 29 -8 44c-7 20 -18 38 -33 54c-20 21 -43 31 -68 31l-20 -2c-15 -5 -27 -14 -36 -28c-4 -9 -6 -17 -8 -24s-3 -16 -3 -27c0 -15 3 -34 9 -57 s18 -41 34 -55c15 -15 36 -23 62 -23c4 0 10 1 18 2c19 5 32 15 40 30s13 34 13 55z" />
      </g>
   </defs>
   <style type="text/css">#hjaw9eu g.ending, #hjaw9eu g.fing, #hjaw9eu g.reh, #hjaw9eu g.tempo {font-weight:bold;}#hjaw9eu g.dir, #hjaw9eu g.dynam, #hjaw9eu g.mNum {font-style:italic;}#hjaw9eu g.label {font-weight:normal;}#hjaw9eu ellipse, #hjaw9eu path, #hjaw9eu polygon, #hjaw9eu polyline, #hjaw9eu rect {stroke:currentColor}</style>
   <svg class="definition-scale" color="black" font-family="Times, serif" viewBox="0 0 14070 4000">
      <g class="page-margin" transform="translate(200, 200)">
         <g id="i10jyl3i" class="mdiv pageMilestone" />
         <g id="jhas16u" class="score pageMilestone" />
         <g id="ubknpu2" class="system">
            <path d="M644 540 L644 3060" stroke-width="27" />
            <g id="f1gvluyt" class="grpSym">
               <use xlink:href="#E003-hjaw9eu" transform="translate(451, 489) scale(0.72, 0.72)" />
               <use xlink:href="#E004-hjaw9eu" transform="translate(451, 3111) scale(0.72, 0.72)" />
               <rect x="451" y="483" height="2634" width="90" />
            </g>
            <g id="hth76lt" class="label">
               <text x="271" y="990" text-anchor="end" font-size="0px">
                  <tspan id="if10iky" class="text">
                     <tspan font-size="405px">C</tspan>
                  </tspan>
               </text>
            </g>
            <g id="saxcc30" class="label">
               <text x="271" y="2790" text-anchor="end" font-size="0px">
                  <tspan id="tnur5x8" class="text">
                     <tspan font-size="405px">T</tspan>
                  </tspan>
               </text>
            </g>
            <g id="l4taou3" class="section systemMilestone" />
            <g id="ml5u3ww" class="measure">
               <g id="vvika2b" class="staff">
                  <path d="M631 540 L5716 540" stroke-width="13" />
                  <path d="M631 720 L5716 720" stroke-width="13" />
                  <path d="M631 900 L5716 900" stroke-width="13" />
                  <path d="M631 1080 L5716 1080" stroke-width="13" />
                  <path d="M631 1260 L5716 1260" stroke-width="13" />
                  <g id="czbcg3p" class="clef">
                     <use xlink:href="#E050-hjaw9eu" transform="translate(748, 1080) scale(0.72, 0.72)" />
                  </g>
                  <g id="d1w1u7hk" class="keySig" />
                  <g id="e1x2w591" class="meterSig" visibility="hidden" />
                  <g id="wcxmty4" class="layer">
                     <g id="xtskodu" class="rest">
                        <use xlink:href="#E4E4-hjaw9eu" transform="translate(1483, 900) scale(0.72, 0.72)" />
                        <g class="ledgerLines" />
                     </g>
                     <g id="y1uht0vn" class="note">
                        <g class="notehead">
                           <use xlink:href="#E0A3-hjaw9eu" transform="translate(3593, 1170) scale(0.72, 0.72)" />
                        </g>
                        <g id="lokvtkg" class="stem">
                           <path d="M3810 1142 L3810 540" stroke-width="18" />
                        </g>
                     </g>
                  </g>
               </g>
               <g id="zn1pliz" class="staff">
                  <path d="M631 2340 L5716 2340" stroke-width="13" />
                  <path d="M631 2520 L5716 2520" stroke-width="13" />
                  <path d="M631 2700 L5716 2700" stroke-width="13" />
                  <path d="M631 2880 L5716 2880" stroke-width="13" />
                  <path d="M631 3060 L5716 3060" stroke-width="13" />
                  <g id="f1kfuy70" class="clef">
                     <use xlink:href="#E052-hjaw9eu" transform="translate(748, 2880) scale(0.72, 0.72)" />
                  </g>
                  <g id="g1vg57wf" class="keySig" />
                  <g id="h1pvf7jl" class="meterSig" visibility="hidden" />
                  <g id="aopyhp3" class="layer">
                     <g id="b1fy7log" class="rest">
                        <use xlink:href="#E4E4-hjaw9eu" transform="translate(1483, 2700) scale(0.72, 0.72)" />
                        <g class="ledgerLines" />
                     </g>
                     <g id="cf1k4bs" class="note">
                        <g class="notehead">
                           <use xlink:href="#E0A3-hjaw9eu" transform="translate(3593, 2790) scale(0.72, 0.72)" />
                        </g>
                        <g id="m13ptg4l" class="stem">
                           <path d="M3810 2762 L3810 2160" stroke-width="18" />
                        </g>
                     </g>
                  </g>
               </g>
               <g id="d1ivemxq" class="harm">
                  <text x="3593" y="1723" font-size="0px">
                     <tspan id="e1pyggo6" class="text">
                        <tspan font-size="405px" x="3593" y="1723">6</tspan>
                     </tspan>
                  </text>
               </g>
               <g id="awvlz3b" class="tie">
                  <path d="M3864,1215 C4363,1322 5348,1322 5851,1215 C5355,1370 4356,1370 3864,1215" stroke-width="9" stroke-linecap="round" stroke-linejoin="round" />
               </g>
               <g id="u2io2l9" class="barLine">
                  <path d="M5703 540 L5703 1260" stroke-width="27" />
                  <path d="M5703 2340 L5703 3060" stroke-width="27" />
               </g>
            </g>
            <g id="f12w83yv" class="measure">
               <g id="okhf510" class="staff">
                  <path d="M5716 540 L10129 540" stroke-width="13" />
                  <path d="M5716 720 L10129 720" stroke-width="13" />
                  <path d="M5716 900 L10129 900" stroke-width="13" />
                  <path d="M5716 1080 L10129 1080" stroke-width="13" />
                  <path d="M5716 1260 L10129 1260" stroke-width="13" />
                  <g id="px1190c" class="layer">
                     <g id="qsqqc5m" class="note">
                        <g class="notehead">
                           <use xlink:href="#E0A3-hjaw9eu" transform="translate(5896, 1170) scale(0.72, 0.72)" />
                        </g>
                        <g id="n1tkwkvt" class="stem">
                           <path d="M6113 1142 L6113 540" stroke-width="18" />
                        </g>
                     </g>
                     <g id="r1vv96rk" class="note">
                        <g class="notehead">
                           <use xlink:href="#E0A3-hjaw9eu" transform="translate(8006, 1260) scale(0.72, 0.72)" />
                        </g>
                        <g id="o15qx7vn" class="stem">
                           <path d="M8223 1232 L8223 630" stroke-width="18" />
                        </g>
                     </g>
                  </g>
               </g>
               <g id="s14rsv9v" class="staff">
                  <path d="M5716 2340 L10129 2340" stroke-width="13" />
                  <path d="M5716 2520 L10129 2520" stroke-width="13" />
                  <path d="M5716 2700 L10129 2700" stroke-width="13" />
                  <path d="M5716 2880 L10129 2880" stroke-width="13" />
                  <path d="M5716 3060 L10129 3060" stroke-width="13" />
                  <g id="t1wuzfzm" class="layer">
                     <g id="ubdqli5" class="note">
                        <g class="notehead">
                           <use xlink:href="#E0A2-hjaw9eu" transform="translate(5896, 2880) scale(0.72, 0.72)" />
                        </g>
                     </g>
                  </g>
               </g>
               <g id="vekuc64" class="harm">
                  <text x="5896" y="1723" font-size="0px">
                     <tspan id="w1ua5h1m" class="text">
                        <tspan font-size="405px" x="5896" y="1723">7</tspan>
                     </tspan>
                  </text>
               </g>
               <g id="x59298d" class="harm">
                  <text x="8006" y="1723" font-size="0px">
                     <tspan id="yetubhz" class="text">
                        <tspan font-size="405px" x="8006" y="1723">6</tspan>
                     </tspan>
                  </text>
               </g>
               <g id="n1h9lg0p" class="barLine">
                  <path d="M10116 540 L10116 1260" stroke-width="27" />
                  <path d="M10116 2340 L10116 3060" stroke-width="27" />
               </g>
            </g>
            <g id="z1rf3yvg" class="measure">
               <g id="i1wo3ww4" class="staff">
                  <path d="M10129 540 L13674 540" stroke-width="13" />
                  <path d="M10129 720 L13674 720" stroke-width="13" />
                  <path d="M10129 900 L13674 900" stroke-width="13" />
                  <path d="M10129 1080 L13674 1080" stroke-width="13" />
                  <path d="M10129 1260 L13674 1260" stroke-width="13" />
                  <g id="j15b2cg8" class="layer">
                     <g id="k19wo4ov" class="note">
                        <g class="notehead">
                           <use xlink:href="#E0A2-hjaw9eu" transform="translate(10309, 1170) scale(0.72, 0.72)" />
                        </g>
                     </g>
                  </g>
               </g>
               <g id="lx0fcx1" class="staff">
                  <path d="M10129 2340 L13674 2340" stroke-width="13" />
                  <path d="M10129 2520 L13674 2520" stroke-width="13" />
                  <path d="M10129 2700 L13674 2700" stroke-width="13" />
                  <path d="M10129 2880 L13674 2880" stroke-width="13" />
                  <path d="M10129 3060 L13674 3060" stroke-width="13" />
                  <g id="mweg3nh" class="layer">
                     <g id="nb4kpc3" class="note">
                        <g class="notehead">
                           <use xlink:href="#E0A2-hjaw9eu" transform="translate(10309, 2970) scale(0.72, 0.72)" />
                        </g>
                     </g>
                  </g>
               </g>
               <g id="o8xdztu" class="harm">
                  <text x="10309" y="1723" font-size="0px">
                     <tspan id="p10cfca0" class="text">
                        <tspan font-size="405px" x="10309" y="1723">8</tspan>
                     </tspan>
                  </text>
               </g>
               <g id="h1u5t4ol" class="barLine">
                  <path d="M13499 540 L13499 1260" stroke-width="27" />
                  <path d="M13629 540 L13629 1260" stroke-width="90" />
                  <path d="M13499 2340 L13499 3060" stroke-width="27" />
                  <path d="M13629 2340 L13629 3060" stroke-width="90" />
               </g>
            </g>
            <g id="xti02il" class="systemMilestoneEnd l4taou3" />
         </g>
         <g id="y1m231b9" class="pageMilestoneEnd jhas16u" />
         <g id="z159siti" class="pageMilestoneEnd i10jyl3i" />
      </g>
   </svg>
</svg>
