<svg viewBox="0 0 2355 400" version="1.1" xmlns="http://www.w3.org/2000/svg" xmlns:xlink="http://www.w3.org/1999/xlink" overflow="visible" id="u1uk4qlx">
   <desc>Engraved by Verovio 6.3.0-425dd7b</desc>
   <defs>
      <g id="E003-u1uk4qlx">
         <path transform="scale(1,-1)" d="M0 -0v111c0 0 62 1 63 1c70 0 233 16 321 170c1 1 15 -5 15 -6c-5 -7 -57 -176 -263 -271c-24 -4 -53 -5 -83 -5h-53z" />
      </g>
      <g id="E004-u1uk4qlx">
         <path transform="scale(1,-1)" d="M0 0h53c30 0 59 -1 83 -5c206 -95 258 -264 263 -271c0 -1 -14 -7 -15 -6c-88 154 -251 170 -321 170c-1 0 -63 1 -63 1v111z" />
      </g>
      <g id="E050-u1uk4qlx">
         <path transform="scale(1,-1)" d="M441 -245c-23 -4 -48 -6 -76 -6c-59 0 -102 7 -130 20c-88 42 -150 93 -187 154c-26 44 -43 103 -48 176c0 6 -1 13 -1 19c0 54 15 111 45 170c29 57 65 106 110 148s96 85 153 127c-3 16 -8 46 -13 92c-4 43 -5 73 -5 89c0 117 16 172 69 257c34 54 64 82 89 82 c21 0 43 -30 69 -92s39 -115 41 -159v-15c0 -109 -21 -162 -67 -241c-13 -20 -63 -90 -98 -118c-13 -9 -25 -19 -37 -29l31 -181c8 1 18 2 28 2c58 0 102 -12 133 -35c59 -43 92 -104 98 -184c1 -7 1 -15 1 -22c0 -123 -87 -209 -181 -248c8 -57 17 -110 25 -162 c5 -31 6 -58 6 -80c0 -30 -5 -53 -14 -70c-35 -64 -88 -99 -158 -103c-5 0 -11 -1 -16 -1c-37 0 -72 10 -108 27c-50 24 -77 59 -80 105v11c0 29 7 55 20 76c18 28 45 42 79 44h6c49 0 93 -42 97 -87v-9c0 -51 -34 -86 -105 -106c17 -24 51 -36 102 -36c62 0 116 43 140 85 c9 16 13 41 13 74c0 20 -1 42 -5 67c-8 53 -18 106 -26 159zM461 939c-95 0 -135 -175 -135 -286c0 -24 2 -48 5 -71c50 39 92 82 127 128c40 53 60 100 60 140v8c-4 53 -22 81 -55 81h-2zM406 119l54 -326c73 25 110 78 110 161c0 7 0 15 -1 23c-7 95 -57 142 -151 142h-12 zM382 117c-72 -2 -128 -47 -128 -120v-7c2 -46 43 -99 75 -115c-3 -2 -7 -5 -10 -10c-70 33 -116 88 -123 172v11c0 68 44 126 88 159c23 17 49 29 78 36l-29 170c-21 -13 -52 -37 -92 -73c-50 -44 -86 -84 -109 -119c-45 -69 -67 -130 -67 -182v-13c5 -68 35 -127 93 -176 s125 -73 203 -73c25 0 50 3 75 9c-19 111 -36 221 -54 331z" />
      </g>
      <g id="E260-u1uk4qlx">
         <path transform="scale(1,-1)" d="M20 110c32 16 54 27 93 27c26 0 35 -3 54 -13c13 -7 24 -20 27 -38l4 -25c0 -28 -16 -57 -45 -89c-23 -25 -39 -44 -65 -68l-88 -79v644h20v-359zM90 106c-32 0 -48 -10 -70 -29v-194c31 31 54 59 71 84c21 32 32 59 32 84c0 9 1 16 1 20c0 14 -3 21 -11 30l-8 3z" />
      </g>
      <g id="E062-u1uk4qlx">
         <path transform="scale(1,-1)" d="M582 -120c0 32 26 58 58 58s58 -26 58 -58s-26 -58 -58 -58s-58 26 -58 58zM582 120c0 32 26 58 58 58s58 -26 58 -58s-26 -58 -58 -58s-58 26 -58 58zM158 96c51 0 73 -14 88 -49l16 -39c0 -17 -2 -30 -7 -40c-3 -11 -10 -21 -19 -31c-17 -18 -49 -43 -84 -43 c-55 0 -77 13 -112 44c-24 21 -35 55 -35 100c0 46 14 81 32 112c30 52 71 79 137 93l36 6l26 2c154 0 235 -68 274 -182c11 -32 18 -68 18 -107c0 -103 -26 -182 -68 -250c-89 -145 -234 -230 -412 -288l-30 -5c-9 0 -14 3 -14 8c3 10 5 11 10 16c35 15 70 30 96 44l78 43 c96 57 162 136 197 258c9 33 17 60 22 100c3 22 5 35 6 39c-7 69 -16 115 -23 140s-4 22 -16 40c-8 12 -19 23 -31 34c-24 21 -62 44 -118 44c-48 0 -84 -8 -113 -28c-28 -19 -42 -44 -42 -73v-16c2 -5 3 -9 4 -11c24 22 52 39 84 39z" />
      </g>
      <g id="E0A2-u1uk4qlx">
         <path transform="scale(1,-1)" d="M198 133c102 0 207 -45 207 -133c0 -92 -118 -133 -227 -133c-101 0 -178 46 -178 133c0 88 93 133 198 133zM293 -21c0 14 -3 29 -8 44c-7 20 -18 38 -33 54c-20 21 -43 31 -68 31l-20 -2c-15 -5 -27 -14 -36 -28c-4 -9 -6 -17 -8 -24s-3 -16 -3 -27c0 -15 3 -34 9 -57 s18 -41 34 -55c15 -15 36 -23 62 -23c4 0 10 1 18 2c19 5 32 15 40 30s13 34 13 55z" />
      </g>
   </defs>
   <style type="text/css">#u1uk4qlx g.ending, #u1uk4qlx g.fing, #u1uk4qlx g.reh, #u1uk4qlx g.tempo {font-weight:bold;}#u1uk4qlx g.dir, #u1uk4qlx g.dynam, #u1uk4qlx g.mNum {font-style:italic;}#u1uk4qlx g.label {font-weight:normal;}#u1uk4qlx ellipse, #u1uk4qlx path, #u1uk4qlx polygon, #u1uk4qlx polyline, #u1uk4qlx rect {stroke:currentColor}#u1uk4qlx g.cursor {fill:dodgerblue; color:dodgerblue;}#u1uk4qlx g.cursor.chord {fill:limegreen; color:limegreen;}</style>
   <svg class="definition-scale" color="black" font-family="Times, serif" viewBox="0 0 23550 4000">
      <g class="page-margin" transform="translate(200, 200)">
         <g id="v1mist5a" class="mdiv pageMilestone" />
         <g id="w1m7d9uo" class="score pageMilestone" />
         <g id="v1pru818" class="system">
            <path d="M1681 540 L1681 3060" stroke-width="27" />
            <g id="n7qu0gu" class="grpSym">
               <use xlink:href="#E003-u1uk4qlx" transform="translate(1488, 489) scale(0.72, 0.72)" />
               <use xlink:href="#E004-u1uk4qlx" transform="translate(1488, 3111) scale(0.72, 0.72)" />
               <rect x="1488" y="483" height="2634" width="90" />
            </g>
            <g id="psihf9y" class="label">
               <text x="1308" y="990" text-anchor="end" font-size="0px">
                  <tspan id="q1r65ga9" class="text">
                     <tspan font-size="405px">Patiente</tspan>
                  </tspan>
               </text>
            </g>
            <g id="d1dbuj3f" class="label">
               <text x="1308" y="2790" text-anchor="end" font-size="0px">
                  <tspan id="e1l21dmu" class="text">
                     <tspan font-size="405px">Agente</tspan>
                  </tspan>
               </text>
            </g>
            <g id="a17hex98" class="section systemMilestone" />
            <g id="b1i3yygp" class="measure">
               <g id="k1o128m8" class="staff">
                  <path d="M1668 540 L6081 540" stroke-width="13" />
                  <path d="M1668 720 L6081 720" stroke-width="13" />
                  <path d="M1668 900 L6081 900" stroke-width="13" />
                  <path d="M1668 1080 L6081 1080" stroke-width="13" />
                  <path d="M1668 1260 L6081 1260" stroke-width="13" />
                  <g id="wijw29w" class="clef">
                     <use xlink:href="#E050-u1uk4qlx" transform="translate(1785, 1080) scale(0.72, 0.72)" />
                  </g>
                  <g id="x1ysfz6y" class="keySig">
                     <g id="y12vm6jl" class="keyAccid">
                        <use xlink:href="#E260-u1uk4qlx" transform="translate(2466, 900) scale(0.72, 0.72)" />
                     </g>
                  </g>
                  <g id="z18z2g8a" class="meterSig" visibility="hidden" />
                  <g id="l1a327c8" class="layer">
                     <g id="m1uqgras" class="space" />
                  </g>
               </g>
               <g id="n11alqw1" class="staff">
                  <path d="M1668 2340 L6081 2340" stroke-width="13" />
                  <path d="M1668 2520 L6081 2520" stroke-width="13" />
                  <path d="M1668 2700 L6081 2700" stroke-width="13" />
                  <path d="M1668 2880 L6081 2880" stroke-width="13" />
                  <path d="M1668 3060 L6081 3060" stroke-width="13" />
                  <g id="a1cabpt9" class="clef">
                     <use xlink:href="#E062-u1uk4qlx" transform="translate(1785, 2520) scale(0.72, 0.72)" />
                  </g>
                  <g id="bn26tmm" class="keySig">
                     <g id="cio34v1" class="keyAccid">
                        <use xlink:href="#E260-u1uk4qlx" transform="translate(2466, 2880) scale(0.72, 0.72)" />
                     </g>
                  </g>
                  <g id="dmvrdhf" class="meterSig" visibility="hidden" />
                  <g class="ledgerLines above">
                     <path d="M2830 2160 L3216 2160" stroke-width="22" />
                  </g>
                  <g id="omqwsg9" class="layer">
                     <g id="p5fxiqw" class="note">
                        <g class="notehead">
                           <use xlink:href="#E0A2-u1uk4qlx" transform="translate(2878, 2070) scale(0.72, 0.72)" />
                        </g>
                     </g>
                  </g>
               </g>
               <g id="j1i7sn4w" class="barLine">
                  <path d="M6068 540 L6068 1260" stroke-width="27" />
                  <path d="M6068 2340 L6068 3060" stroke-width="27" />
               </g>
            </g>
            <g id="q1vnaiy8" class="measure">
               <g id="z5gehdt" class="staff">
                  <path d="M6081 540 L9464 540" stroke-width="13" />
                  <path d="M6081 720 L9464 720" stroke-width="13" />
                  <path d="M6081 900 L9464 900" stroke-width="13" />
                  <path d="M6081 1080 L9464 1080" stroke-width="13" />
                  <path d="M6081 1260 L9464 1260" stroke-width="13" />
                  <g id="a1kfv1cl" class="layer">
                     <g id="bb0vfly" class="space" />
                  </g>
               </g>
               <g id="cmf110h" class="staff">
                  <path d="M6081 2340 L9464 2340" stroke-width="13" />
                  <path d="M6081 2520 L9464 2520" stroke-width="13" />
                  <path d="M6081 2700 L9464 2700" stroke-width="13" />
                  <path d="M6081 2880 L9464 2880" stroke-width="13" />
                  <path d="M6081 3060 L9464 3060" stroke-width="13" />
                  <g class="ledgerLines above">
                     <path d="M6213 2160 L6599 2160" stroke-width="22" />
                  </g>
                  <g id="dk4zuom" class="layer">
                     <g id="e14irzbe" class="note">
                        <g class="notehead">
                           <use xlink:href="#E0A2-u1uk4qlx" transform="translate(6261, 2160) scale(0.72, 0.72)" />
                        </g>
                     </g>
                  </g>
               </g>
               <g id="y1aakg20" class="barLine">
                  <path d="M9451 540 L9451 1260" stroke-width="27" />
                  <path d="M9451 2340 L9451 3060" stroke-width="27" />
               </g>
            </g>
            <g id="f19yzcks" class="measure">
               <g id="o1aqbuji" class="staff">
                  <path d="M9464 540 L12847 540" stroke-width="13" />
                  <path d="M9464 720 L12847 720" stroke-width="13" />
                  <path d="M9464 900 L12847 900" stroke-width="13" />
                  <path d="M9464 1080 L12847 1080" stroke-width="13" />
                  <path d="M9464 1260 L12847 1260" stroke-width="13" />
                  <g id="pv24se2" class="layer">
                     <g id="q126g784" class="space" />
                  </g>
               </g>
               <g id="r1t8g2q7" class="staff">
                  <path d="M9464 2340 L12847 2340" stroke-width="13" />
                  <path d="M9464 2520 L12847 2520" stroke-width="13" />
                  <path d="M9464 2700 L12847 2700" stroke-width="13" />
                  <path d="M9464 2880 L12847 2880" stroke-width="13" />
                  <path d="M9464 3060 L12847 3060" stroke-width="13" />
                  <g id="s4k52gp" class="layer">
                     <g id="t101llwc" class="note">
                        <g class="notehead">
                           <use xlink:href="#E0A2-u1uk4qlx" transform="translate(9644, 2250) scale(0.72, 0.72)" />
                        </g>
                        <g id="u1dmxw6" class="accid" />
                     </g>
                  </g>
               </g>
               <g id="n1jbs4tu" class="barLine">
                  <path d="M12834 540 L12834 1260" stroke-width="27" />
                  <path d="M12834 2340 L12834 3060" stroke-width="27" />
               </g>
            </g>
            <g id="v182oga6" class="measure">
               <g id="e1y7fevn" class="staff">
                  <path d="M12847 540 L16230 540" stroke-width="13" />
                  <path d="M12847 720 L16230 720" stroke-width="13" />
                  <path d="M12847 900 L16230 900" stroke-width="13" />
                  <path d="M12847 1080 L16230 1080" stroke-width="13" />
                  <path d="M12847 1260 L16230 1260" stroke-width="13" />
                  <g id="fbcg3hk" class="layer">
                     <g id="gzrwjjw" class="space" />
                  </g>
               </g>
               <g id="h1eucf3g" class="staff">
                  <path d="M12847 2340 L16230 2340" stroke-width="13" />
                  <path d="M12847 2520 L16230 2520" stroke-width="13" />
                  <path d="M12847 2700 L16230 2700" stroke-width="13" />
                  <path d="M12847 2880 L16230 2880" stroke-width="13" />
                  <path d="M12847 3060 L16230 3060" stroke-width="13" />
                  <g id="i1qc3b2w" class="layer">
                     <g id="jp0bm6k" class="note">
                        <g class="notehead">
                           <use xlink:href="#E0A2-u1uk4qlx" transform="translate(13027, 2340) scale(0.72, 0.72)" />
                        </g>
                     </g>
                  </g>
               </g>
               <g id="k214ncu" class="dir">
                  <text x="13027" y="990" font-size="0px">
                     <tspan id="l1qynesf" class="rend">
                        <tspan id="m1ty511p" class="text">
                           <tspan font-size="810px">?</tspan>
                        </tspan>
                     </tspan>
                  </text>
               </g>
               <g id="dpdiix" class="barLine">
                  <path d="M16217 540 L16217 1260" stroke-width="27" />
                  <path d="M16217 2340 L16217 3060" stroke-width="27" />
               </g>
            </g>
            <g id="n17chs7g" class="measure">
               <g id="w1b064xl" class="staff">
                  <path d="M16230 540 L19613 540" stroke-width="13" />
                  <path d="M16230 720 L19613 720" stroke-width="13" />
                  <path d="M16230 900 L19613 900" stroke-width="13" />
                  <path d="M16230 1080 L19613 1080" stroke-width="13" />
                  <path d="M16230 1260 L19613 1260" stroke-width="13" />
                  <g id="x1s5ybp2" class="layer">
                     <g id="ympaesh" class="space" />
                  </g>
               </g>
               <g id="z1pwpyq7" class="staff">
                  <path d="M16230 2340 L19613 2340" stroke-width="13" />
                  <path d="M16230 2520 L19613 2520" stroke-width="13" />
                  <path d="M16230 2700 L19613 2700" stroke-width="13" />
                  <path d="M16230 2880 L19613 2880" stroke-width="13" />
                  <path d="M16230 3060 L19613 3060" stroke-width="13" />
                  <g id="a1y06ovb" class="layer">
                     <g id="bshl9dq" class="note">
                        <g class="notehead">
                           <use xlink:href="#E0A2-u1uk4qlx" transform="translate(16410, 2430) scale(0.72, 0.72)" />
                        </g>
                     </g>
                  </g>
               </g>
               <g id="v1untydr" class="barLine">
                  <path d="M19600 540 L19600 1260" stroke-width="27" />
                  <path d="M19600 2340 L19600 3060" stroke-width="27" />
               </g>
            </g>
            <g id="c1csrd0q" class="measure">
               <g id="l1493jmq" class="staff">
                  <path d="M19613 540 L23158 540" stroke-width="13" />
                  <path d="M19613 720 L23158 720" stroke-width="13" />
                  <path d="M19613 900 L23158 900" stroke-width="13" />
                  <path d="M19613 1080 L23158 1080" stroke-width="13" />
                  <path d="M19613 1260 L23158 1260" stroke-width="13" />
                  <g id="m19nn1a3" class="layer">
                     <g id="nq8iud6" class="space" />
                  </g>
               </g>
               <g id="orz2m00" class="staff">
                  <path d="M19613 2340 L23158 2340" stroke-width="13" />
                  <path d="M19613 2520 L23158 2520" stroke-width="13" />
                  <path d="M19613 2700 L23158 2700" stroke-width="13" />
                  <path d="M19613 2880 L23158 2880" stroke-width="13" />
                  <path d="M19613 3060 L23158 3060" stroke-width="13" />
                  <g id="pw7kjfg" class="layer">
                     <g id="qsj463v" class="note">
                        <g class="notehead">
                           <use xlink:href="#E0A2-u1uk4qlx" transform="translate(19793, 2520) scale(0.72, 0.72)" />
                        </g>
                     </g>
                  </g>
               </g>
               <g id="kubyl55" class="barLine">
                  <path d="M22983 540 L22983 1260" stroke-width="27" />
                  <path d="M23113 540 L23113 1260" stroke-width="90" />
                  <path d="M22983 2340 L22983 3060" stroke-width="27" />
                  <path d="M23113 2340 L23113 3060" stroke-width="90" />
               </g>
            </g>
            <g id="y9xfoza" class="systemMilestoneEnd a17hex98" />
         </g>
         <g id="z1rx6gly" class="pageMilestoneEnd w1m7d9uo" />
         <g id="a6dh65k" class="pageMilestoneEnd v1mist5a" />
      </g>
   </svg>
</svg>
